<svg xmlns="http://www.w3.org/2000/svg" version="1.1" xmlns:xlink="http://www.w3.org/1999/xlink" xmlns:svgjs="http://svgjs.dev/svgjs" width="1500" height="1682" viewBox="0 0 1500 1682"><g transform="matrix(1,0,0,1,-2.3362757009347206,0)"><svg viewBox="0 0 321 360" data-background-color="#ffffff" preserveAspectRatio="xMidYMid meet" height="1682" width="1500" xmlns="http://www.w3.org/2000/svg" xmlns:xlink="http://www.w3.org/1999/xlink"><g id="tight-bounds" transform="matrix(1,0,0,1,0.4999630000000366,0)"><svg viewBox="0 0 320 360" height="360" width="320"><g><svg></svg></g><g><svg viewBox="0 0 320 360" height="360" width="320"><g><path transform="translate(-29.57346,-9.38389) scale(3.79147,3.79147)" d="M50 13.6c19.1 0 34.8 14.8 36.3 33.5h5.9c-0.3-4.7-1.4-9.2-3.2-13.5-2.1-5-5.2-9.6-9.1-13.4-3.9-3.9-8.4-6.9-13.4-9.1-5.3-2.2-10.8-3.4-16.5-3.4-5.7 0-11.2 1.1-16.5 3.3-5 2.1-9.6 5.2-13.4 9.1-3.9 3.9-6.9 8.4-9.1 13.4-1.8 4.3-2.9 8.9-3.2 13.5h5.9c1.5-18.6 17.2-33.4 36.3-33.4zM50 86.4c-19.1 0-34.8-14.8-36.3-33.5h-5.9c0.3 4.7 1.4 9.2 3.2 13.5 2.1 5 5.2 9.6 9.1 13.4 3.9 3.9 8.4 6.9 13.4 9.1 5.2 2.2 10.7 3.3 16.5 3.3 5.8 0 11.2-1.1 16.5-3.3 5-2.1 9.6-5.2 13.4-9.1 3.9-3.9 6.9-8.4 9.1-13.4 1.8-4.3 2.9-8.9 3.2-13.5h-5.9c-1.5 18.7-17.2 33.5-36.3 33.5z" fill="#5ebc67" fill-rule="nonzero" stroke="none" stroke-width="1" stroke-linecap="butt" stroke-linejoin="miter" stroke-miterlimit="10" stroke-dasharray="" stroke-dashoffset="0" font-family="none" font-weight="none" font-size="none" text-anchor="none" style="mix-blend-mode: normal" data-fill-palette-color="tertiary"></path></g><g transform="matrix(1,0,0,1,56,150.93812696412093)"><svg viewBox="0 0 208 58.12374607175814" height="58.12374607175814" width="208"><g><svg viewBox="0 0 279.6 78.13172789261336" height="58.12374607175814" width="208"><g><svg viewBox="0 0 279.6 78.13172789261336" height="78.13172789261336" width="279.6"><g id="textblocktransform"><svg viewBox="0 0 279.6 78.13172789261336" height="78.13172789261336" width="279.6" id="textblock"><g><svg viewBox="0 0 279.6 57.92439999999999" height="57.92439999999999" width="279.6"><g><svg><g></g><g></g></svg></g><g><svg><g><svg></svg></g><g></g></svg></g><g id="text-0"><svg viewBox="0 0 279.6 57.92439999999999" height="57.92439999999999" width="279.6"><g transform="matrix(1,0,0,1,0,1.1043623643845848)"><svg width="208" viewBox="3.95 -35.4 133.64000000000001 35.8" height="55.71567527123082" data-palette-color="#152232"><path d="M15.15-35.05Q19.15-35.05 21.63-32.38 24.1-29.7 24.1-25.3L24.1-25.3Q24.1-20.95 21.63-18.32 19.15-15.7 15.15-15.7L15.15-15.7 7.7-15.7Q7.5-15.7 7.5-15.5L7.5-15.5 7.5-0.5Q7.5 0 7 0L7 0 4.45 0Q3.95 0 3.95-0.5L3.95-0.5 3.95-34.55Q3.95-35.05 4.45-35.05L4.45-35.05 15.15-35.05ZM14.7-18.65Q17.35-18.65 18.95-20.45 20.55-22.25 20.55-25.25L20.55-25.25Q20.55-28.3 18.95-30.13 17.35-31.95 14.7-31.95L14.7-31.95 7.7-31.95Q7.5-31.95 7.5-31.75L7.5-31.75 7.5-18.85Q7.5-18.65 7.7-18.65L7.7-18.65 14.7-18.65ZM39.15 0.4Q34.6 0.4 31.82-2.3 29.05-5 29.05-9.45L29.05-9.45 29.05-25.6Q29.05-30.05 31.82-32.73 34.6-35.4 39.15-35.4L39.15-35.4Q43.75-35.4 46.52-32.75 49.3-30.1 49.3-25.7L49.3-25.7 49.3-25.25Q49.3-24.75 48.8-24.75L48.8-24.75 46.25-24.65Q45.75-24.65 45.75-25.1L45.75-25.1 45.75-25.8Q45.75-28.7 43.92-30.5 42.1-32.3 39.15-32.3L39.15-32.3Q36.2-32.3 34.4-30.53 32.6-28.75 32.6-25.8L32.6-25.8 32.6-9.2Q32.6-6.25 34.4-4.48 36.2-2.7 39.15-2.7L39.15-2.7Q42.1-2.7 43.92-4.5 45.75-6.3 45.75-9.2L45.75-9.2 45.75-9.9Q45.75-10.35 46.25-10.35L46.25-10.35 48.8-10.2Q49.3-10.2 49.3-9.7L49.3-9.7 49.3-9.35Q49.3-4.95 46.52-2.27 43.75 0.4 39.15 0.4L39.15 0.4ZM63.85 0.4Q60.2 0.4 57.85-1.58 55.5-3.55 55-6.9L55-6.9Q54.7-9.4 54.7-12.7L54.7-12.7Q54.7-16 55-18.4L55-18.4Q55.45-21.7 57.82-23.7 60.2-25.7 63.85-25.7L63.85-25.7Q67.5-25.7 69.87-23.7 72.25-21.7 72.7-18.4L72.7-18.4Q73-16.4 73-12.7L73-12.7Q73-8.9 72.7-6.9L72.7-6.9Q72.25-3.55 69.87-1.58 67.5 0.4 63.85 0.4L63.85 0.4ZM63.85-2.7Q66-2.7 67.47-4.03 68.95-5.35 69.25-7.55L69.25-7.55Q69.45-9.4 69.45-12.65L69.45-12.65Q69.45-15.95 69.25-17.75L69.25-17.75Q69-19.95 67.52-21.28 66.05-22.6 63.85-22.6L63.85-22.6Q61.65-22.6 60.2-21.28 58.75-19.95 58.45-17.75L58.45-17.75Q58.25-15.95 58.25-12.65L58.25-12.65Q58.25-9.35 58.45-7.55L58.45-7.55Q58.7-5.35 60.17-4.03 61.65-2.7 63.85-2.7L63.85-2.7ZM92.79-24.8Q92.79-25.3 93.29-25.3L93.29-25.3 95.84-25.3Q96.34-25.3 96.34-24.8L96.34-24.8 96.34-0.5Q96.34 0 95.84 0L95.84 0 93.29 0Q92.79 0 92.79-0.5L92.79-0.5 92.79-2.45Q92.79-2.6 92.72-2.6 92.64-2.6 92.54-2.5L92.54-2.5Q90.79 0.35 86.74 0.35L86.74 0.35Q83.34 0.35 81.19-1.65 79.04-3.65 79.04-7.45L79.04-7.45 79.04-24.8Q79.04-25.3 79.54-25.3L79.54-25.3 82.09-25.3Q82.59-25.3 82.59-24.8L82.59-24.8 82.59-8.35Q82.59-5.7 83.89-4.23 85.19-2.75 87.54-2.75L87.54-2.75Q89.99-2.75 91.39-4.33 92.79-5.9 92.79-8.55L92.79-8.55 92.79-24.8ZM113.14-25.65Q116.64-25.65 118.67-23.43 120.69-21.2 120.69-17.35L120.69-17.35 120.69-0.5Q120.69 0 120.19 0L120.19 0 117.64 0Q117.14 0 117.14-0.5L117.14-0.5 117.14-16.85Q117.14-19.45 115.79-21 114.44-22.55 112.09-22.55L112.09-22.55Q109.74-22.55 108.31-20.98 106.89-19.4 106.89-16.75L106.89-16.75 106.89-0.5Q106.89 0 106.39 0L106.39 0 103.84 0Q103.34 0 103.34-0.5L103.34-0.5 103.34-24.8Q103.34-25.3 103.84-25.3L103.84-25.3 106.39-25.3Q106.89-25.3 106.89-24.8L106.89-24.8 106.89-22.85Q106.89-22.75 106.97-22.7 107.04-22.65 107.14-22.75L107.14-22.75Q109.09-25.65 113.14-25.65L113.14-25.65ZM137.59-23Q137.59-22.5 137.09-22.5L137.09-22.5 132.34-22.5Q132.14-22.5 132.14-22.3L132.14-22.3 132.14-7.3Q132.14-4.95 133.06-4.03 133.99-3.1 136.04-3.1L136.04-3.1 136.89-3.1Q137.39-3.1 137.39-2.6L137.39-2.6 137.39-0.5Q137.39 0 136.89 0L136.89 0 135.34 0.05Q132.09 0.05 130.39-1.28 128.69-2.6 128.69-6.2L128.69-6.2 128.69-22.3Q128.69-22.5 128.49-22.5L128.49-22.5 125.99-22.5Q125.49-22.5 125.49-23L125.49-23 125.49-24.8Q125.49-25.3 125.99-25.3L125.99-25.3 128.49-25.3Q128.69-25.3 128.69-25.5L128.69-25.5 128.69-31.2Q128.69-31.7 129.19-31.7L129.19-31.7 131.64-31.7Q132.14-31.7 132.14-31.2L132.14-31.2 132.14-25.5Q132.14-25.3 132.34-25.3L132.34-25.3 137.09-25.3Q137.59-25.3 137.59-24.8L137.59-24.8 137.59-23Z" opacity="1" transform="matrix(1,0,0,1,0,0)" fill="#152232" class="wordmark-text-0" data-fill-palette-color="primary"></path></svg></g><g><svg xmlns="http://www.w3.org/2000/svg" xmlns:xlink="http://www.w3.org/1999/xlink" version="1.1" x="221.6756" y="0" viewBox="14 14 72 72" enable-background="new 0 0 100 100" xml:space="preserve" height="57.92439999999999" width="57.92439999999999" class="icon-dxe-0" data-fill-palette-color="accent" id="dxe-0"><g fill="#5ebc67" data-fill-palette-color="accent"><circle cx="23" cy="23" r="9.0" fill="#5ebc67" data-fill-palette-color="accent"></circle><path d="M23 41A9 9 0 0 0 14 50V86H32V50A9 9 0 0 0 23 41" fill="#5ebc67" data-fill-palette-color="accent"></path><circle cx="50" cy="23" r="9.0" fill="#5ebc67" data-fill-palette-color="accent"></circle><path d="M50 41A9 9 0 0 0 41 50V86H59V50A9 9 0 0 0 50 41" fill="#5ebc67" data-fill-palette-color="accent"></path><circle cx="77" cy="23" r="9.0" fill="#5ebc67" data-fill-palette-color="accent"></circle><path d="M77 41A9 9 0 0 0 68 50V86H86V50A9 9 0 0 0 77 41" fill="#5ebc67" data-fill-palette-color="accent"></path></g></svg></g></svg></g></svg></g><g transform="matrix(1,0,0,1,53.40360000000001,71.07753375533107)"><svg viewBox="0 0 172.7928 7.0541941372822725" height="7.0541941372822725" width="172.7928"><g transform="matrix(1,0,0,1,0,0)"><svg width="172.7928" viewBox="1.9 -38.6 1206.6899999999998 49.27" height="7.0541941372822725" data-palette-color="#5ebc67"><path d="M13.75 0.51L13.75 0.51Q10.18 0.51 7.5-1.17L7.5-1.17Q4.83-2.83 3.37-5.81 1.9-8.79 1.9-12.7L1.9-12.7 1.9-13.72Q1.9-17.53 3.32-20.46L3.32-20.46Q4.74-23.44 7.4-25.17 10.06-26.9 13.75-26.9L13.75-26.9Q16.94-26.9 19.35-25.85 21.75-24.8 23.39-22.97L23.39-22.97 23.51-16.63 19.75-16.63 18.92-21.24Q18.09-22.09 16.85-22.61 15.6-23.12 13.92-23.12L13.92-23.12Q11.74-23.12 10.16-21.85L10.16-21.85Q8.52-20.58 7.62-18.46 6.71-16.33 6.71-13.72L6.71-13.72 6.71-12.7Q6.71-9.84 7.57-7.69L7.57-7.69Q8.42-5.57 9.99-4.41 11.55-3.25 13.72-3.25L13.72-3.25Q16.16-3.25 17.77-4.59 19.38-5.93 19.75-8.28L19.75-8.28 24.07-8.28 24.12-8.13Q24.02-5.91 22.78-3.88L22.78-3.88Q21.56-1.9 19.3-0.7 17.04 0.51 13.75 0.51ZM39.79 0.51L39.79 0.51Q36.15 0.51 33.49-1.22L33.49-1.22Q30.83-2.95 29.39-5.98 27.95-9.01 27.95-12.92L27.95-12.92 27.95-13.45Q27.95-17.33 29.39-20.41L29.39-20.41Q30.83-23.46 33.48-25.18 36.13-26.9 39.74-26.9L39.74-26.9Q43.38-26.9 46.07-25.17L46.07-25.17Q48.7-23.44 50.14-20.41 51.58-17.38 51.58-13.45L51.58-13.45 51.58-12.92Q51.58-9.03 50.14-5.96L50.14-5.96Q48.7-2.93 46.07-1.21 43.43 0.51 39.79 0.51ZM39.79-3.25L39.79-3.25Q42.09-3.25 43.65-4.52L43.65-4.52Q45.19-5.76 45.98-7.95 46.77-10.13 46.77-12.92L46.77-12.92 46.77-13.45Q46.77-16.21 45.99-18.43L45.99-18.43Q45.19-20.61 43.63-21.86 42.06-23.12 39.74-23.12L39.74-23.12Q37.47-23.12 35.89-21.88L35.89-21.88Q34.32-20.61 33.54-18.42 32.76-16.24 32.76-13.45L32.76-13.45 32.76-12.92Q32.76-10.16 33.54-7.96L33.54-7.96Q34.32-5.76 35.9-4.5 37.47-3.25 39.79-3.25ZM66.91 0.51L66.91 0.51Q62.62 0.51 60.2-2.25 57.78-5 57.78-10.84L57.78-10.84 57.78-22.63 54.76-23.32 54.76-26.42 62.59-26.42 62.59-10.79Q62.59-6.57 63.84-4.98 65.08-3.39 67.72-3.39L67.72-3.39Q70.28-3.39 71.96-4.43 73.63-5.47 74.48-7.37L74.48-7.37 74.48-22.63 70.94-23.32 70.94-26.42 79.29-26.42 79.29-3.76 82.32-3.08 82.32 0 74.97 0 74.65-3.91Q73.41-1.78 71.44-0.63 69.48 0.51 66.91 0.51ZM94.47-19.26L94.47-19.26 94.47-3.76 98.45-3.08 98.45 0 85.69 0 85.69-3.08 89.67-3.76 89.67-22.63 85.69-23.32 85.69-26.42 93.96-26.42 94.3-22.49Q95.62-24.58 97.61-25.74 99.6-26.9 102.14-26.9L102.14-26.9Q106.41-26.9 108.76-24.4 111.1-21.9 111.1-16.67L111.1-16.67 111.1-3.76 115.08-3.08 115.08 0 102.31 0 102.31-3.08 106.29-3.76 106.29-16.58Q106.29-20.07 104.91-21.53 103.53-23 100.7-23L100.7-23Q98.63-23 97.03-22 95.43-21 94.47-19.26ZM127.8 0.42L127.8 0.42Q124.87 0.42 123.15-1.31 121.43-3.03 121.43-6.81L121.43-6.81 121.43-22.85 117.25-22.85 117.25-26.42 121.43-26.42 121.43-32.79 126.24-32.79 126.24-26.42 131.97-26.42 131.97-22.85 126.24-22.85 126.24-6.81Q126.24-4.91 126.99-4 127.75-3.1 129.02-3.1L129.02-3.1Q129.87-3.1 130.92-3.26 131.97-3.42 132.56-3.54L132.56-3.54 133.22-0.39Q132.17-0.07 130.64 0.17 129.12 0.42 127.8 0.42ZM179.25-19.26L179.25-19.26 179.25-3.76 183.23-3.08 183.23 0 170.47 0 170.47-3.08 174.45-3.76 174.45-22.63 170.47-23.32 170.47-26.42 178.74-26.42 179.08-22.49Q180.4-24.58 182.39-25.74 184.38-26.9 186.92-26.9L186.92-26.9Q191.19-26.9 193.54-24.4 195.88-21.9 195.88-16.67L195.88-16.67 195.88-3.76 199.86-3.08 199.86 0 187.09 0 187.09-3.08 191.07-3.76 191.07-16.58Q191.07-20.07 189.69-21.53 188.31-23 185.48-23L185.48-23Q183.41-23 181.81-22 180.21-21 179.25-19.26ZM214.87 0.51L214.87 0.51Q210.58 0.51 208.16-2.25 205.74-5 205.74-10.84L205.74-10.84 205.74-22.63 202.71-23.32 202.71-26.42 210.55-26.42 210.55-10.79Q210.55-6.57 211.8-4.98 213.04-3.39 215.68-3.39L215.68-3.39Q218.24-3.39 219.91-4.43 221.59-5.47 222.44-7.37L222.44-7.37 222.44-22.63 218.9-23.32 218.9-26.42 227.25-26.42 227.25-3.76 230.28-3.08 230.28 0 222.93 0 222.61-3.91Q221.37-1.78 219.4-0.63 217.44 0.51 214.87 0.51ZM242.43-19.56L242.43-19.56 242.43-3.76 246.41-3.08 246.41 0 233.64 0 233.64-3.08 237.62-3.76 237.62-22.63 233.64-23.32 233.64-26.42 241.95-26.42 242.26-22.97Q243.53-24.85 245.53-25.88 247.54-26.9 250.17-26.9L250.17-26.9Q252.81-26.9 254.7-25.68 256.59-24.46 257.55-22.02L257.55-22.02Q258.79-24.27 260.84-25.59 262.89-26.9 265.63-26.9L265.63-26.9Q269.68-26.9 272.02-24.13 274.37-21.36 274.37-15.8L274.37-15.8 274.37-3.76 278.35-3.08 278.35 0 265.55 0 265.55-3.08 269.53-3.76 269.53-15.84Q269.53-19.75 268.19-21.37 266.85-23 264.21-23L264.21-23Q261.7-23 260.17-21.23 258.64-19.46 258.4-16.77L258.4-16.77 258.4-3.76 262.38-3.08 262.38 0 249.61 0 249.61-3.08 253.59-3.76 253.59-15.84Q253.59-19.56 252.21-21.28 250.83-23 248.22-23L248.22-23Q246.02-23 244.61-22.09 243.19-21.19 242.43-19.56ZM295.95 0.51L295.95 0.51Q290.84 0.51 288.28-3.39L288.28-3.39 287.84 0 283.69 0 283.69-34.3 279.71-34.99 279.71-38.09 288.5-38.09 288.5-23.29Q289.75-25.05 291.59-25.98 293.43-26.9 295.9-26.9L295.9-26.9Q299.19-26.9 301.49-25.15L301.49-25.15Q303.81-23.36 305.03-20.17 306.25-16.97 306.25-12.72L306.25-12.72 306.25-12.21Q306.25-8.42 305.03-5.54L305.03-5.54Q303.78-2.69 301.48-1.09 299.17 0.51 295.95 0.51ZM294.73-3.39L294.73-3.39Q298.12-3.39 299.77-5.81 301.42-8.23 301.42-12.21L301.42-12.21 301.42-12.72Q301.42-15.8 300.68-18.09L300.68-18.09Q299.95-20.41 298.46-21.7 296.97-23 294.68-23L294.68-23Q292.46-23 290.93-21.92 289.4-20.85 288.5-19.04L288.5-19.04 288.5-7.37Q289.4-5.54 290.95-4.47 292.5-3.39 294.73-3.39ZM321.9 0.51L321.9 0.51Q318.23 0.51 315.52-1.17L315.52-1.17Q312.81-2.83 311.34-5.81 309.86-8.79 309.86-12.7L309.86-12.7 309.86-13.77Q309.86-17.55 311.42-20.51L311.42-20.51Q312.96-23.49 315.54-25.2 318.11-26.9 321.16-26.9L321.16-26.9Q324.73-26.9 327.15-25.44L327.15-25.44Q329.54-23.97 330.76-21.33 331.98-18.68 331.98-15.09L331.98-15.09 331.98-12.08 314.84-12.08 314.77-11.96Q314.79-9.47 315.67-7.47L315.67-7.47Q316.53-5.49 318.1-4.37 319.67-3.25 321.9-3.25L321.9-3.25Q324.34-3.25 326.18-3.94 328.02-4.64 329.37-5.86L329.37-5.86 331.25-2.73Q329.83-1.37 327.5-0.43 325.17 0.51 321.9 0.51ZM314.94-15.97L314.94-15.97 314.99-15.84 327.17-15.84 327.17-16.48Q327.17-18.41 326.51-19.9L326.51-19.9Q325.83-21.41 324.5-22.27 323.17-23.12 321.16-23.12L321.16-23.12Q319.58-23.12 318.23-22.19L318.23-22.19Q315.5-20.21 314.94-15.97ZM344.45-18.73L344.45-18.73 344.45-3.76 348.43-3.08 348.43 0 335.66 0 335.66-3.08 339.64-3.76 339.64-22.63 335.66-23.32 335.66-26.42 343.94-26.42 344.35-23.05 344.4-22.58Q345.53-24.61 347.17-25.76 348.82-26.9 350.95-26.9L350.95-26.9Q351.7-26.9 352.5-26.77 353.29-26.64 353.63-26.51L353.63-26.51 353-22.05 349.65-22.24Q347.75-22.36 346.45-21.37 345.16-20.39 344.45-18.73ZM385.59 0.51L385.59 0.51Q381.95 0.51 379.29-1.22L379.29-1.22Q376.63-2.95 375.18-5.98 373.74-9.01 373.74-12.92L373.74-12.92 373.74-13.45Q373.74-17.33 375.18-20.41L375.18-20.41Q376.63-23.46 379.27-25.18 381.92-26.9 385.54-26.9L385.54-26.9Q389.17-26.9 391.86-25.17L391.86-25.17Q394.5-23.44 395.94-20.41 397.38-17.38 397.38-13.45L397.38-13.45 397.38-12.92Q397.38-9.03 395.94-5.96L395.94-5.96Q394.5-2.93 391.86-1.21 389.22 0.51 385.59 0.51ZM385.59-3.25L385.59-3.25Q387.88-3.25 389.44-4.52L389.44-4.52Q390.98-5.76 391.77-7.95 392.57-10.13 392.57-12.92L392.57-12.92 392.57-13.45Q392.57-16.21 391.79-18.43L391.79-18.43Q390.98-20.61 389.42-21.86 387.86-23.12 385.54-23.12L385.54-23.12Q383.27-23.12 381.68-21.88L381.68-21.88Q380.12-20.61 379.34-18.42 378.55-16.24 378.55-13.45L378.55-13.45 378.55-12.92Q378.55-10.16 379.34-7.96L379.34-7.96Q380.12-5.76 381.69-4.5 383.27-3.25 385.59-3.25ZM415.54-26.42L415.54-22.85 409.78-22.85 409.78-3.76 414.32-3.08 414.32 0 400.99 0 400.99-3.08 404.97-3.76 404.97-22.85 400.84-22.85 400.84-26.42 404.97-26.42 404.97-29.76Q404.97-33.98 407.18-36.29 409.39-38.6 413.34-38.6L413.34-38.6Q414.17-38.6 415.14-38.46 416.1-38.33 417.13-38.09L417.13-38.09 416.54-34.42Q416.1-34.52 415.36-34.59 414.61-34.67 413.95-34.67L413.95-34.67Q409.78-34.67 409.78-29.76L409.78-29.76 409.78-26.42 415.54-26.42ZM443.68-2.73L443.68-2.73 443.68 6.37 447.88 7.06 447.88 10.16 435.14 10.16 435.14 7.06 438.87 6.37 438.87-22.63 434.89-23.32 434.89-26.42 443-26.42 443.44-23.19Q446.15-26.9 451.03-26.9L451.03-26.9Q454.33-26.9 456.62-25.15L456.62-25.15Q458.94-23.36 460.16-20.18 461.38-16.99 461.38-12.72L461.38-12.72 461.38-12.21Q461.38-8.42 460.16-5.54L460.16-5.54Q458.92-2.69 456.62-1.09 454.33 0.51 451.1 0.51L451.1 0.51Q446.3 0.51 443.68-2.73ZM449.62-3.25L449.62-3.25Q453.03-3.25 454.79-5.74 456.55-8.23 456.55-12.21L456.55-12.21 456.55-12.72Q456.55-15.72 455.77-18.07L455.77-18.07Q454.99-20.39 453.44-21.69 451.89-23 449.57-23L449.57-23Q447.52-23 446.05-22.07 444.59-21.14 443.68-19.53L443.68-19.53 443.68-6.67Q444.59-5.03 446.04-4.14 447.49-3.25 449.62-3.25ZM477.13 0.51L477.13 0.51Q473.47 0.51 470.76-1.17L470.76-1.17Q468.05-2.83 466.57-5.81 465.09-8.79 465.09-12.7L465.09-12.7 465.09-13.77Q465.09-17.55 466.65-20.51L466.65-20.51Q468.19-23.49 470.77-25.2 473.34-26.9 476.4-26.9L476.4-26.9Q479.96-26.9 482.38-25.44L482.38-25.44Q484.77-23.97 485.99-21.33 487.21-18.68 487.21-15.09L487.21-15.09 487.21-12.08 470.07-12.08 470-11.96Q470.02-9.47 470.9-7.47L470.9-7.47Q471.76-5.49 473.33-4.37 474.91-3.25 477.13-3.25L477.13-3.25Q479.57-3.25 481.41-3.94 483.26-4.64 484.6-5.86L484.6-5.86 486.48-2.73Q485.06-1.37 482.73-0.43 480.4 0.51 477.13 0.51ZM470.17-15.97L470.17-15.97 470.22-15.84 482.4-15.84 482.4-16.48Q482.4-18.41 481.74-19.9L481.74-19.9Q481.06-21.41 479.73-22.27 478.4-23.12 476.4-23.12L476.4-23.12Q474.81-23.12 473.47-22.19L473.47-22.19Q470.73-20.21 470.17-15.97ZM502.88 0.51L502.88 0.51Q499.24 0.51 496.58-1.22L496.58-1.22Q493.92-2.95 492.48-5.98 491.04-9.01 491.04-12.92L491.04-12.92 491.04-13.45Q491.04-17.33 492.48-20.41L492.48-20.41Q493.92-23.46 496.57-25.18 499.22-26.9 502.83-26.9L502.83-26.9Q506.47-26.9 509.16-25.17L509.16-25.17Q511.79-23.44 513.23-20.41 514.67-17.38 514.67-13.45L514.67-13.45 514.67-12.92Q514.67-9.03 513.23-5.96L513.23-5.96Q511.79-2.93 509.16-1.21 506.52 0.51 502.88 0.51ZM502.88-3.25L502.88-3.25Q505.18-3.25 506.74-4.52L506.74-4.52Q508.28-5.76 509.07-7.95 509.86-10.13 509.86-12.92L509.86-12.92 509.86-13.45Q509.86-16.21 509.08-18.43L509.08-18.43Q508.28-20.61 506.72-21.86 505.15-23.12 502.83-23.12L502.83-23.12Q500.56-23.12 498.98-21.88L498.98-21.88Q497.41-20.61 496.63-18.42 495.85-16.24 495.85-13.45L495.85-13.45 495.85-12.92Q495.85-10.16 496.63-7.96L496.63-7.96Q497.41-5.76 498.99-4.5 500.56-3.25 502.88-3.25ZM526.2-2.73L526.2-2.73 526.2 6.37 530.39 7.06 530.39 10.16 517.65 10.16 517.65 7.06 521.39 6.37 521.39-22.63 517.41-23.32 517.41-26.42 525.51-26.42 525.95-23.19Q528.66-26.9 533.54-26.9L533.54-26.9Q536.84-26.9 539.13-25.15L539.13-25.15Q541.45-23.36 542.67-20.18 543.9-16.99 543.9-12.72L543.9-12.72 543.9-12.21Q543.9-8.42 542.67-5.54L542.67-5.54Q541.43-2.69 539.13-1.09 536.84 0.51 533.62 0.51L533.62 0.51Q528.81 0.51 526.2-2.73ZM532.13-3.25L532.13-3.25Q535.55-3.25 537.3-5.74 539.06-8.23 539.06-12.21L539.06-12.21 539.06-12.72Q539.06-15.72 538.28-18.07L538.28-18.07Q537.5-20.39 535.95-21.69 534.4-23 532.08-23L532.08-23Q530.03-23 528.56-22.07 527.1-21.14 526.2-19.53L526.2-19.53 526.2-6.67Q527.1-5.03 528.55-4.14 530-3.25 532.13-3.25ZM547.36-3.08L551.34-3.76 551.34-34.3 547.36-34.99 547.36-38.09 556.15-38.09 556.15-3.76 560.13-3.08 560.13 0 547.36 0 547.36-3.08ZM575.58 0.51L575.58 0.51Q571.92 0.51 569.21-1.17L569.21-1.17Q566.5-2.83 565.02-5.81 563.54-8.79 563.54-12.7L563.54-12.7 563.54-13.77Q563.54-17.55 565.11-20.51L565.11-20.51Q566.64-23.49 569.22-25.2 571.8-26.9 574.85-26.9L574.85-26.9Q578.41-26.9 580.83-25.44L580.83-25.44Q583.22-23.97 584.44-21.33 585.66-18.68 585.66-15.09L585.66-15.09 585.66-12.08 568.52-12.08 568.45-11.96Q568.48-9.47 569.35-7.47L569.35-7.47Q570.21-5.49 571.78-4.37 573.36-3.25 575.58-3.25L575.58-3.25Q578.02-3.25 579.86-3.94 581.71-4.64 583.05-5.86L583.05-5.86 584.93-2.73Q583.51-1.37 581.18-0.43 578.85 0.51 575.58 0.51ZM568.62-15.97L568.62-15.97 568.67-15.84 580.85-15.84 580.85-16.48Q580.85-18.41 580.19-19.9L580.19-19.9Q579.51-21.41 578.18-22.27 576.85-23.12 574.85-23.12L574.85-23.12Q573.26-23.12 571.92-22.19L571.92-22.19Q569.18-20.21 568.62-15.97ZM618.52 0.51L618.52 0.51Q614.86 0.51 612.15-1.17L612.15-1.17Q609.44-2.83 607.96-5.81 606.48-8.79 606.48-12.7L606.48-12.7 606.48-13.77Q606.48-17.55 608.05-20.51L608.05-20.51Q609.58-23.49 612.16-25.2 614.73-26.9 617.79-26.9L617.79-26.9Q621.35-26.9 623.77-25.44L623.77-25.44Q626.16-23.97 627.38-21.33 628.6-18.68 628.6-15.09L628.6-15.09 628.6-12.08 611.46-12.08 611.39-11.96Q611.41-9.47 612.29-7.47L612.29-7.47Q613.15-5.49 614.72-4.37 616.3-3.25 618.52-3.25L618.52-3.25Q620.96-3.25 622.8-3.94 624.65-4.64 625.99-5.86L625.99-5.86 627.87-2.73Q626.45-1.37 624.12-0.43 621.79 0.51 618.52 0.51ZM611.56-15.97L611.56-15.97 611.61-15.84 623.79-15.84 623.79-16.48Q623.79-18.41 623.13-19.9L623.13-19.9Q622.45-21.41 621.12-22.27 619.79-23.12 617.79-23.12L617.79-23.12Q616.2-23.12 614.86-22.19L614.86-22.19Q612.12-20.21 611.56-15.97ZM641.12-19.26L641.12-19.26 641.12-3.76 645.1-3.08 645.1 0 632.33 0 632.33-3.08 636.31-3.76 636.31-22.63 632.33-23.32 632.33-26.42 640.61-26.42 640.95-22.49Q642.27-24.58 644.26-25.74 646.25-26.9 648.79-26.9L648.79-26.9Q653.06-26.9 655.41-24.4 657.75-21.9 657.75-16.67L657.75-16.67 657.75-3.76 661.73-3.08 661.73 0 648.96 0 648.96-3.08 652.94-3.76 652.94-16.58Q652.94-20.07 651.56-21.53 650.18-23 647.35-23L647.35-23Q645.27-23 643.68-22 642.08-21 641.12-19.26ZM674.45 0.42L674.45 0.42Q671.52 0.42 669.8-1.31 668.07-3.03 668.07-6.81L668.07-6.81 668.07-22.85 663.9-22.85 663.9-26.42 668.07-26.42 668.07-32.79 672.88-32.79 672.88-26.42 678.62-26.42 678.62-22.85 672.88-22.85 672.88-6.81Q672.88-4.91 673.64-4 674.4-3.1 675.67-3.1L675.67-3.1Q676.52-3.1 677.57-3.26 678.62-3.42 679.21-3.54L679.21-3.54 679.87-0.39Q678.82-0.07 677.29 0.17 675.77 0.42 674.45 0.42ZM694.98 0.51L694.98 0.51Q691.31 0.51 688.6-1.17L688.6-1.17Q685.89-2.83 684.42-5.81 682.94-8.79 682.94-12.7L682.94-12.7 682.94-13.77Q682.94-17.55 684.5-20.51L684.5-20.51Q686.04-23.49 688.62-25.2 691.19-26.9 694.24-26.9L694.24-26.9Q697.81-26.9 700.23-25.44L700.23-25.44Q702.62-23.97 703.84-21.33 705.06-18.68 705.06-15.09L705.06-15.09 705.06-12.08 687.92-12.08 687.85-11.96Q687.87-9.47 688.75-7.47L688.75-7.47Q689.61-5.49 691.18-4.37 692.75-3.25 694.98-3.25L694.98-3.25Q697.42-3.25 699.26-3.94 701.1-4.64 702.45-5.86L702.45-5.86 704.33-2.73Q702.91-1.37 700.58-0.43 698.25 0.51 694.98 0.51ZM688.02-15.97L688.02-15.97 688.07-15.84 700.25-15.84 700.25-16.48Q700.25-18.41 699.59-19.9L699.59-19.9Q698.91-21.41 697.58-22.27 696.25-23.12 694.24-23.12L694.24-23.12Q692.66-23.12 691.31-22.19L691.31-22.19Q688.58-20.21 688.02-15.97ZM717.53-18.73L717.53-18.73 717.53-3.76 721.51-3.08 721.51 0 708.74 0 708.74-3.08 712.72-3.76 712.72-22.63 708.74-23.32 708.74-26.42 717.02-26.42 717.43-23.05 717.48-22.58Q718.61-24.61 720.25-25.76 721.9-26.9 724.03-26.9L724.03-26.9Q724.78-26.9 725.58-26.77 726.37-26.64 726.71-26.51L726.71-26.51 726.08-22.05 722.73-22.24Q720.83-22.36 719.53-21.37 718.24-20.39 717.53-18.73ZM738.26-32.93L733.2-32.93 733.2-38.09 738.26-38.09 738.26-32.93ZM729.47-3.08L733.45-3.76 733.45-22.63 729.47-23.32 729.47-26.42 738.26-26.42 738.26-3.76 742.24-3.08 742.24 0 729.47 0 729.47-3.08ZM754.34-19.26L754.34-19.26 754.34-3.76 758.32-3.08 758.32 0 745.55 0 745.55-3.08 749.53-3.76 749.53-22.63 745.55-23.32 745.55-26.42 753.83-26.42 754.17-22.49Q755.49-24.58 757.48-25.74 759.47-26.9 762.01-26.9L762.01-26.9Q766.28-26.9 768.63-24.4 770.97-21.9 770.97-16.67L770.97-16.67 770.97-3.76 774.95-3.08 774.95 0 762.18 0 762.18-3.08 766.16-3.76 766.16-16.58Q766.16-20.07 764.78-21.53 763.4-23 760.57-23L760.57-23Q758.49-23 756.9-22 755.3-21 754.34-19.26ZM796.87-26.42L804.19-26.42 804.19-23.34 800.92-22.63 800.92-0.34Q800.92 3.1 799.65 5.54L799.65 5.54Q798.38 8.01 795.92 9.34 793.45 10.67 789.94 10.67L789.94 10.67Q788.03 10.67 785.81 10.14 783.59 9.62 781.9 8.72L781.9 8.72 783.15 4.98Q784.49 5.69 786.32 6.15 788.15 6.62 789.89 6.62L789.89 6.62Q793.11 6.62 794.61 4.81 796.11 3 796.11-0.34L796.11-0.34 796.11-2.86Q793.48 0.51 788.86 0.51L788.86 0.51Q785.64 0.51 783.3-1.1L783.3-1.1Q780.95-2.69 779.7-5.55 778.44-8.42 778.44-12.21L778.44-12.21 778.44-12.72Q778.44-17.02 779.71-20.17L779.71-20.17Q780.95-23.36 783.3-25.13 785.64-26.9 788.91-26.9L788.91-26.9Q793.82-26.9 796.43-23.1L796.43-23.1 796.87-26.42ZM796.11-7.18L796.11-7.18 796.11-19.34Q795.19-21.02 793.7-22.01 792.21-23 790.11-23L790.11-23Q787.81-23 786.3-21.68L786.3-21.68Q784.76-20.36 784-18.05 783.25-15.75 783.25-12.72L783.25-12.72 783.25-12.21Q783.25-8.23 784.93-5.81 786.62-3.39 790.06-3.39L790.06-3.39Q792.23-3.39 793.7-4.38 795.16-5.37 796.11-7.18ZM833 0.42L833 0.42Q830.07 0.42 828.35-1.31 826.63-3.03 826.63-6.81L826.63-6.81 826.63-22.85 822.45-22.85 822.45-26.42 826.63-26.42 826.63-32.79 831.44-32.79 831.44-26.42 837.17-26.42 837.17-22.85 831.44-22.85 831.44-6.81Q831.44-4.91 832.19-4 832.95-3.1 834.22-3.1L834.22-3.1Q835.07-3.1 836.12-3.26 837.17-3.42 837.76-3.54L837.76-3.54 838.42-0.39Q837.37-0.07 835.84 0.17 834.32 0.42 833 0.42ZM849.67-19.51L849.67-19.51 849.67-3.76 853.65-3.08 853.65 0 840.88 0 840.88-3.08 844.86-3.76 844.86-34.3 840.88-34.99 840.88-38.09 849.67-38.09 849.67-22.9Q851.04-24.8 853.02-25.85 854.99-26.9 857.41-26.9L857.41-26.9Q861.66-26.9 864-24.37 866.35-21.83 866.35-16.55L866.35-16.55 866.35-3.76 870.33-3.08 870.33 0 857.56 0 857.56-3.08 861.54-3.76 861.54-16.6Q861.54-23 855.95-23L855.95-23Q853.97-23 852.34-22.06 850.72-21.12 849.67-19.51ZM885.63 0.51L885.63 0.51Q881.97 0.51 879.26-1.17L879.26-1.17Q876.55-2.83 875.07-5.81 873.59-8.79 873.59-12.7L873.59-12.7 873.59-13.77Q873.59-17.55 875.16-20.51L875.16-20.51Q876.69-23.49 879.27-25.2 881.85-26.9 884.9-26.9L884.9-26.9Q888.46-26.9 890.88-25.44L890.88-25.44Q893.27-23.97 894.49-21.33 895.71-18.68 895.71-15.09L895.71-15.09 895.71-12.08 878.57-12.08 878.5-11.96Q878.53-9.47 879.4-7.47L879.4-7.47Q880.26-5.49 881.83-4.37 883.41-3.25 885.63-3.25L885.63-3.25Q888.07-3.25 889.91-3.94 891.76-4.64 893.1-5.86L893.1-5.86 894.98-2.73Q893.56-1.37 891.23-0.43 888.9 0.51 885.63 0.51ZM878.67-15.97L878.67-15.97 878.72-15.84 890.9-15.84 890.9-16.48Q890.9-18.41 890.24-19.9L890.24-19.9Q889.56-21.41 888.23-22.27 886.9-23.12 884.9-23.12L884.9-23.12Q883.31-23.12 881.97-22.19L881.97-22.19Q879.23-20.21 878.67-15.97ZM925.86 0.42L925.86 0.42Q922.93 0.42 921.21-1.31 919.49-3.03 919.49-6.81L919.49-6.81 919.49-22.85 915.31-22.85 915.31-26.42 919.49-26.42 919.49-32.79 924.3-32.79 924.3-26.42 930.03-26.42 930.03-22.85 924.3-22.85 924.3-6.81Q924.3-4.91 925.05-4 925.81-3.1 927.08-3.1L927.08-3.1Q927.93-3.1 928.98-3.26 930.03-3.42 930.62-3.54L930.62-3.54 931.28-0.39Q930.23-0.07 928.7 0.17 927.18 0.42 925.86 0.42ZM943.09-18.73L943.09-18.73 943.09-3.76 947.07-3.08 947.07 0 934.3 0 934.3-3.08 938.28-3.76 938.28-22.63 934.3-23.32 934.3-26.42 942.58-26.42 943-23.05 943.04-22.58Q944.17-24.61 945.82-25.76 947.46-26.9 949.59-26.9L949.59-26.9Q950.34-26.9 951.14-26.77 951.93-26.64 952.27-26.51L952.27-26.51 951.64-22.05 948.29-22.24Q946.39-22.36 945.1-21.37 943.8-20.39 943.09-18.73ZM962.74 0.51L962.74 0.51Q958.62 0.51 956.47-1.5 954.32-3.52 954.32-7.18L954.32-7.18Q954.32-9.72 955.71-11.57L955.71-11.57Q957.08-13.45 959.69-14.48 962.3-15.5 965.94-15.5L965.94-15.5 970.65-15.5 970.65-18.09Q970.65-20.48 969.2-21.8 967.75-23.12 965.11-23.12L965.11-23.12Q963.45-23.12 962.23-22.72 961.01-22.31 960.01-21.61L960.01-21.61 959.5-17.92 955.79-17.92 955.79-23.97Q959.38-26.9 965.19-26.9L965.19-26.9Q970-26.9 972.73-24.61 975.46-22.31 975.46-18.04L975.46-18.04 975.46-5.32Q975.46-4.81 975.48-4.32 975.49-3.83 975.54-3.34L975.54-3.34 978.1-3.08 978.1 0 971.19 0Q970.78-2 970.68-3.64L970.68-3.64Q969.29-1.86 967.2-0.67 965.11 0.51 962.74 0.51ZM963.45-3.52L963.45-3.52Q965.84-3.52 967.82-4.66 969.8-5.81 970.65-7.42L970.65-7.42 970.65-12.21 965.77-12.21Q962.45-12.21 960.79-10.62 959.13-9.03 959.13-7.08L959.13-7.08Q959.13-3.52 963.45-3.52ZM990.45-32.93L985.4-32.93 985.4-38.09 990.45-38.09 990.45-32.93ZM981.66-3.08L985.64-3.76 985.64-22.63 981.66-23.32 981.66-26.42 990.45-26.42 990.45-3.76 994.43-3.08 994.43 0 981.66 0 981.66-3.08ZM1006.54-19.26L1006.54-19.26 1006.54-3.76 1010.52-3.08 1010.52 0 997.75 0 997.75-3.08 1001.73-3.76 1001.73-22.63 997.75-23.32 997.75-26.42 1006.03-26.42 1006.37-22.49Q1007.69-24.58 1009.68-25.74 1011.67-26.9 1014.2-26.9L1014.2-26.9Q1018.48-26.9 1020.82-24.4 1023.16-21.9 1023.16-16.67L1023.16-16.67 1023.16-3.76 1027.14-3.08 1027.14 0 1014.38 0 1014.38-3.08 1018.35-3.76 1018.35-16.58Q1018.35-20.07 1016.98-21.53 1015.6-23 1012.76-23L1012.76-23Q1010.69-23 1009.09-22 1007.49-21 1006.54-19.26ZM1058.32 0.51L1058.32 0.51Q1055.65 0.51 1053.33-0.02 1051.02-0.56 1048.4-1.68L1048.4-1.68 1048.35-7.96 1051.99-7.96 1052.9-4.17Q1055.48-3.1 1058.32-3.1L1058.32-3.1Q1061.25-3.1 1062.51-4.22 1063.78-5.35 1063.78-7.01L1063.78-7.01Q1063.78-8.57 1062.5-9.66 1061.22-10.74 1057.85-11.5L1057.85-11.5Q1053.07-12.6 1050.81-14.44 1048.55-16.28 1048.55-19.36L1048.55-19.36Q1048.55-21.51 1049.79-23.22L1049.79-23.22Q1051.04-24.9 1053.26-25.9 1055.48-26.9 1058.44-26.9L1058.44-26.9Q1061.44-26.9 1063.58-26.22 1065.71-25.54 1067.3-24.39L1067.3-24.39 1067.54-18.36 1063.93-18.36 1063.15-21.88Q1061.37-23.19 1058.44-23.19L1058.44-23.19Q1056.19-23.19 1054.79-22.14 1053.38-21.09 1053.38-19.51L1053.38-19.51Q1053.38-18.6 1053.8-17.9L1053.8-17.9Q1054.24-17.14 1055.56-16.58 1056.87-16.02 1058.71-15.58L1058.71-15.58Q1064.22-14.28 1066.41-12.28 1068.59-10.28 1068.59-7.35L1068.59-7.35Q1068.59-4 1066.12-1.75 1063.64 0.51 1058.32 0.51ZM1081.9 0.42L1081.9 0.42Q1078.97 0.42 1077.25-1.31 1075.52-3.03 1075.52-6.81L1075.52-6.81 1075.52-22.85 1071.35-22.85 1071.35-26.42 1075.52-26.42 1075.52-32.79 1080.33-32.79 1080.33-26.42 1086.07-26.42 1086.07-22.85 1080.33-22.85 1080.33-6.81Q1080.33-4.91 1081.09-4 1081.85-3.1 1083.12-3.1L1083.12-3.1Q1083.97-3.1 1085.02-3.26 1086.07-3.42 1086.66-3.54L1086.66-3.54 1087.32-0.39Q1086.27-0.07 1084.74 0.17 1083.22 0.42 1081.9 0.42ZM1098.94 0.51L1098.94 0.51Q1094.81 0.51 1092.66-1.5 1090.51-3.52 1090.51-7.18L1090.51-7.18Q1090.51-9.72 1091.9-11.57L1091.9-11.57Q1093.27-13.45 1095.88-14.48 1098.5-15.5 1102.13-15.5L1102.13-15.5 1106.85-15.5 1106.85-18.09Q1106.85-20.48 1105.39-21.8 1103.94-23.12 1101.3-23.12L1101.3-23.12Q1099.64-23.12 1098.42-22.72 1097.2-22.31 1096.2-21.61L1096.2-21.61 1095.69-17.92 1091.98-17.92 1091.98-23.97Q1095.57-26.9 1101.38-26.9L1101.38-26.9Q1106.19-26.9 1108.92-24.61 1111.66-22.31 1111.66-18.04L1111.66-18.04 1111.66-5.32Q1111.66-4.81 1111.67-4.32 1111.68-3.83 1111.73-3.34L1111.73-3.34 1114.29-3.08 1114.29 0 1107.38 0Q1106.97-2 1106.87-3.64L1106.87-3.64Q1105.48-1.86 1103.39-0.67 1101.3 0.51 1098.94 0.51ZM1099.64-3.52L1099.64-3.52Q1102.04-3.52 1104.01-4.66 1105.99-5.81 1106.85-7.42L1106.85-7.42 1106.85-12.21 1101.96-12.21Q1098.64-12.21 1096.98-10.62 1095.32-9.03 1095.32-7.08L1095.32-7.08Q1095.32-3.52 1099.64-3.52ZM1127.35 0.42L1127.35 0.42Q1124.42 0.42 1122.7-1.31 1120.98-3.03 1120.98-6.81L1120.98-6.81 1120.98-22.85 1116.8-22.85 1116.8-26.42 1120.98-26.42 1120.98-32.79 1125.79-32.79 1125.79-26.42 1131.53-26.42 1131.53-22.85 1125.79-22.85 1125.79-6.81Q1125.79-4.91 1126.55-4 1127.3-3.1 1128.57-3.1L1128.57-3.1Q1129.43-3.1 1130.48-3.26 1131.53-3.42 1132.11-3.54L1132.11-3.54 1132.77-0.39Q1131.72-0.07 1130.2 0.17 1128.67 0.42 1127.35 0.42ZM1144.46-32.93L1139.41-32.93 1139.41-38.09 1144.46-38.09 1144.46-32.93ZM1135.67-3.08L1139.65-3.76 1139.65-22.63 1135.67-23.32 1135.67-26.42 1144.46-26.42 1144.46-3.76 1148.44-3.08 1148.44 0 1135.67 0 1135.67-3.08ZM1163.7 0.51L1163.7 0.51Q1160.06 0.51 1157.4-1.22L1157.4-1.22Q1154.74-2.95 1153.3-5.98 1151.86-9.01 1151.86-12.92L1151.86-12.92 1151.86-13.45Q1151.86-17.33 1153.3-20.41L1153.3-20.41Q1154.74-23.46 1157.39-25.18 1160.04-26.9 1163.65-26.9L1163.65-26.9Q1167.29-26.9 1169.97-25.17L1169.97-25.17Q1172.61-23.44 1174.05-20.41 1175.49-17.38 1175.49-13.45L1175.49-13.45 1175.49-12.92Q1175.49-9.03 1174.05-5.96L1174.05-5.96Q1172.61-2.93 1169.97-1.21 1167.34 0.51 1163.7 0.51ZM1163.7-3.25L1163.7-3.25Q1165.99-3.25 1167.56-4.52L1167.56-4.52Q1169.09-5.76 1169.89-7.95 1170.68-10.13 1170.68-12.92L1170.68-12.92 1170.68-13.45Q1170.68-16.21 1169.9-18.43L1169.9-18.43Q1169.09-20.61 1167.53-21.86 1165.97-23.12 1163.65-23.12L1163.65-23.12Q1161.38-23.12 1159.79-21.88L1159.79-21.88Q1158.23-20.61 1157.45-18.42 1156.67-16.24 1156.67-13.45L1156.67-13.45 1156.67-12.92Q1156.67-10.16 1157.45-7.96L1157.45-7.96Q1158.23-5.76 1159.8-4.5 1161.38-3.25 1163.7-3.25ZM1187.99-19.26L1187.99-19.26 1187.99-3.76 1191.97-3.08 1191.97 0 1179.2 0 1179.2-3.08 1183.18-3.76 1183.18-22.63 1179.2-23.32 1179.2-26.42 1187.48-26.42 1187.82-22.49Q1189.14-24.58 1191.13-25.74 1193.11-26.9 1195.65-26.9L1195.65-26.9Q1199.93-26.9 1202.27-24.4 1204.61-21.9 1204.61-16.67L1204.61-16.67 1204.61-3.76 1208.59-3.08 1208.59 0 1195.82 0 1195.82-3.08 1199.8-3.76 1199.8-16.58Q1199.8-20.07 1198.42-21.53 1197.05-23 1194.21-23L1194.21-23Q1192.14-23 1190.54-22 1188.94-21 1187.99-19.26Z" opacity="1" transform="matrix(1,0,0,1,0,0)" fill="#5ebc67" class="slogan-text-1" data-fill-palette-color="secondary" id="text-1"></path></svg></g></svg></g></svg></g></svg></g><g></g></svg></g></svg></g></svg></g><defs></defs></svg><rect width="320" height="360" fill="none" stroke="none" visibility="hidden"></rect></g></svg></g></svg>