<?xml version="1.0" standalone="no"?>
<!DOCTYPE svg PUBLIC "-//W3C//DTD SVG 20010904//EN"
 "http://www.w3.org/TR/2001/REC-SVG-20010904/DTD/svg10.dtd">
<svg version="1.0" xmlns="http://www.w3.org/2000/svg"
 width="1682.000000pt" height="1682.000000pt" viewBox="0 0 1682.000000 1682.000000"
 preserveAspectRatio="xMidYMid meet">
<metadata>
Created by potrace 1.14, written by Peter Selinger 2001-2017
</metadata>
<g transform="translate(0.000000,1682.000000) scale(0.100000,-0.100000)"
fill="#000000" stroke="none">
<path d="M8227 15894 c-1 -1 -81 -5 -177 -9 -96 -3 -191 -8 -210 -10 -19 -2
-73 -6 -120 -9 -47 -4 -96 -8 -110 -11 -14 -2 -54 -7 -90 -10 -36 -4 -76 -8
-90 -10 -14 -2 -45 -7 -70 -10 -74 -10 -324 -51 -375 -61 -16 -3 -50 -9 -75
-14 -369 -66 -894 -222 -1334 -397 -215 -85 -326 -134 -531 -236 -149 -74
-265 -136 -441 -237 -17 -10 -42 -24 -55 -32 -13 -7 -26 -15 -29 -18 -3 -3
-34 -23 -70 -44 -116 -70 -362 -237 -500 -339 -119 -89 -365 -283 -410 -326
-10 -9 -46 -41 -81 -72 -104 -93 -119 -106 -244 -229 -304 -298 -437 -445
-722 -794 -53 -65 -253 -341 -324 -446 -97 -143 -249 -386 -249 -396 0 -4 -6
-15 -14 -23 -7 -9 -27 -41 -43 -71 -17 -30 -53 -95 -80 -145 -112 -203 -287
-570 -353 -740 -17 -44 -35 -89 -39 -100 -38 -85 -165 -464 -208 -620 -13 -49
-33 -121 -43 -160 -23 -82 -87 -354 -95 -405 -3 -19 -10 -53 -15 -75 -7 -33
-40 -218 -55 -315 -6 -35 -26 -186 -30 -224 -2 -17 -6 -53 -9 -81 -3 -27 -8
-81 -11 -120 -3 -38 -8 -93 -10 -121 l-4 -52 519 0 c286 0 522 3 524 7 2 3 7
40 10 81 4 41 9 89 11 105 2 17 7 53 10 80 3 28 7 61 10 75 2 14 7 48 10 75 3
28 8 57 10 65 2 8 6 33 9 55 4 22 11 63 16 90 5 28 12 61 14 75 2 14 9 45 15
70 5 25 12 56 14 70 3 14 13 57 22 95 9 39 18 77 20 85 46 209 166 576 281
859 484 1192 1326 2223 2409 2948 87 58 228 147 290 183 248 144 399 222 690
355 434 198 1055 381 1560 460 55 9 111 18 125 20 53 8 188 25 255 31 39 3 84
7 100 9 227 26 862 26 1110 1 17 -2 55 -6 85 -9 30 -4 80 -9 110 -12 30 -3 66
-8 80 -10 14 -2 48 -6 75 -10 28 -3 59 -7 70 -9 11 -2 54 -9 95 -16 41 -7 138
-26 215 -42 77 -16 153 -32 168 -34 155 -28 621 -173 866 -268 147 -58 171
-68 279 -117 35 -16 65 -29 68 -29 3 0 94 -44 202 -99 353 -176 659 -365 962
-590 104 -77 257 -197 270 -211 3 -3 21 -18 40 -34 216 -175 546 -501 735
-726 44 -52 83 -97 86 -100 4 -4 70 -86 158 -196 9 -11 27 -35 40 -54 13 -19
54 -75 90 -124 80 -112 164 -239 246 -371 115 -186 179 -304 300 -550 129
-263 226 -496 302 -725 13 -41 29 -84 34 -95 12 -27 117 -395 124 -436 3 -18
8 -35 10 -39 2 -4 7 -22 10 -41 3 -19 8 -42 11 -51 5 -17 11 -44 20 -88 3 -14
12 -59 21 -100 17 -85 17 -82 37 -205 14 -88 23 -148 32 -230 2 -22 6 -53 9
-70 2 -16 7 -61 11 -100 8 -80 11 -108 13 -115 0 -3 234 -5 519 -5 l517 0 -1
60 c-1 65 -12 204 -18 245 -2 14 -7 52 -10 85 -9 86 -22 183 -30 233 -13 70
-16 92 -21 127 -3 22 -10 60 -15 85 -9 41 -55 266 -64 315 -2 11 -16 67 -31
125 -15 58 -28 112 -30 120 -2 8 -21 78 -44 155 -132 457 -292 867 -501 1287
-97 193 -159 304 -333 593 -81 134 -444 649 -476 675 -4 3 -45 52 -93 110 -48
58 -98 119 -113 135 -15 17 -52 59 -83 95 -68 78 -441 452 -532 534 -36 32
-85 77 -110 100 -38 35 -91 80 -205 175 -11 9 -54 43 -95 76 -41 33 -77 62
-80 65 -3 3 -66 50 -140 105 -193 142 -469 325 -624 415 -222 129 -308 176
-461 254 -362 185 -683 317 -1075 444 -232 75 -571 165 -775 207 -193 39 -297
58 -380 70 -22 3 -65 10 -95 15 -30 5 -100 14 -155 20 -55 6 -114 13 -132 15
-17 3 -67 7 -110 11 -43 3 -94 7 -113 9 -111 11 -673 26 -683 19z"/>
<path d="M11429 9762 c-113 -31 -187 -122 -194 -235 -13 -224 263 -347 424
-188 105 104 99 271 -12 366 -59 50 -154 75 -218 57z"/>
<path d="M12163 9755 c-99 -30 -169 -124 -172 -230 -8 -235 276 -349 433 -174
91 101 86 248 -11 346 -61 60 -165 85 -250 58z"/>
<path d="M12935 9761 c-118 -30 -202 -148 -189 -269 18 -178 209 -280 365
-196 142 78 178 260 74 381 -58 69 -166 105 -250 84z"/>
<path d="M5350 9727 c-3 -3 -23 -7 -45 -11 -61 -8 -98 -21 -162 -56 -134 -72
-225 -201 -249 -355 -10 -63 -12 -981 -2 -1055 17 -138 56 -220 146 -309 96
-94 206 -138 363 -146 332 -15 578 199 579 506 0 51 -2 57 -23 63 -27 6 -156
11 -161 5 -2 -2 -6 -39 -9 -82 -13 -166 -102 -273 -266 -317 -57 -15 -167 -7
-233 17 -95 34 -175 125 -198 228 -17 73 -17 1033 0 1095 28 104 87 175 180
219 48 22 68 26 160 26 99 0 109 -2 172 -33 114 -56 174 -150 185 -292 l6 -80
88 0 c87 0 89 0 95 26 17 68 -19 232 -68 313 -68 111 -193 197 -329 227 -36 8
-223 17 -229 11z"/>
<path d="M3535 9699 c-12 -19 -7 -1871 5 -1879 8 -5 137 -6 173 -1 4 1 7 190
7 421 0 231 3 420 8 421 4 0 117 2 252 4 135 2 256 6 269 9 177 42 308 174
352 356 24 100 13 307 -21 380 -77 166 -184 257 -338 289 -72 15 -698 15 -707
0z m680 -174 c156 -50 245 -249 199 -448 -19 -79 -45 -126 -96 -173 -77 -71
-110 -78 -368 -79 l-225 0 -3 357 c-2 328 -1 357 15 360 9 2 108 2 220 2 161
-2 214 -6 258 -19z"/>
<path d="M10278 9513 c-2 -10 -4 -87 -3 -170 0 -98 -3 -154 -10 -155 -5 0 -35
-2 -65 -3 -30 -2 -64 -3 -76 -4 -19 -1 -21 -7 -21 -63 0 -35 4 -69 9 -75 7 -8
37 -13 84 -13 41 0 75 -3 75 -7 1 -5 2 -222 3 -483 2 -424 4 -482 21 -537 10
-35 22 -63 26 -63 5 0 9 -6 9 -13 0 -20 77 -72 135 -92 56 -19 238 -30 264
-15 14 7 17 22 16 79 0 39 -3 73 -6 76 -4 3 -37 7 -75 9 -118 6 -172 44 -192
133 -5 22 -9 237 -10 477 l0 436 138 0 c98 0 140 4 147 13 12 15 14 108 3 127
-6 10 -42 14 -142 15 -73 2 -136 3 -140 4 -4 0 -6 72 -6 160 0 87 -2 164 -6
170 -4 7 -40 11 -90 11 -71 0 -84 -3 -88 -17z"/>
<path d="M6686 9199 c-209 -32 -353 -165 -392 -359 -11 -55 -17 -159 -19 -317
-3 -350 25 -471 136 -588 85 -90 191 -134 333 -140 269 -10 466 143 502 390
12 87 13 105 14 310 1 228 -4 288 -30 385 -60 224 -289 358 -544 319z m220
-194 c81 -40 138 -121 151 -217 10 -66 10 -506 1 -570 -23 -160 -144 -260
-304 -254 -162 6 -265 111 -280 285 -4 39 -7 138 -7 219 -1 331 12 396 92 485
76 84 234 107 347 52z"/>
<path d="M9295 9182 c-71 -25 -119 -56 -160 -105 -19 -22 -35 -34 -36 -26 0 8
-2 38 -3 66 -1 29 -5 56 -9 59 -9 9 -142 11 -165 3 -17 -6 -18 -44 -17 -677 0
-369 4 -674 8 -678 10 -11 152 -13 169 -3 10 7 13 100 14 486 1 505 3 531 49
602 56 88 128 124 245 123 92 -1 164 -42 214 -122 43 -67 46 -104 46 -604 0
-369 3 -477 13 -483 16 -10 152 -12 168 -2 9 5 12 118 12 481 0 260 -3 501 -7
536 -9 84 -39 162 -86 221 -77 97 -152 131 -300 137 -83 3 -116 0 -155 -14z"/>
<path d="M7611 9178 c-21 -7 -21 -8 -21 -521 0 -544 2 -574 49 -665 78 -152
290 -230 484 -180 78 21 135 55 172 104 14 19 29 34 33 34 4 0 7 -27 6 -60 -1
-35 3 -63 10 -68 6 -4 46 -7 90 -7 70 -1 79 1 85 20 13 36 8 1335 -6 1343 -15
9 -161 7 -171 -2 -4 -4 -8 -218 -8 -474 -1 -257 -4 -485 -8 -507 -15 -91 -77
-173 -156 -208 -32 -15 -66 -20 -120 -20 -120 0 -188 41 -237 141 l-28 57 -2
504 c-1 277 -4 506 -7 508 -8 8 -143 9 -165 1z"/>
<path d="M11434 9005 c-96 -22 -169 -89 -193 -180 -6 -26 -9 -224 -8 -555 l2
-515 250 0 250 0 0 535 c-1 529 -1 535 -23 576 -58 111 -165 165 -278 139z"/>
<path d="M12150 8997 c-51 -16 -133 -102 -149 -157 -10 -34 -13 -158 -12 -540
0 -272 0 -506 1 -520 l0 -26 250 0 251 0 -3 540 c-3 533 -3 542 -25 581 -59
110 -189 161 -313 122z"/>
<path d="M12906 8996 c-57 -21 -105 -65 -135 -121 l-26 -50 0 -535 0 -535 247
0 c166 -1 249 2 251 9 2 6 3 245 3 531 -2 505 -2 521 -22 566 -25 53 -68 100
-115 125 -45 23 -153 28 -203 10z"/>
<path d="M915 7881 c-6 -11 12 -227 35 -406 7 -49 14 -108 16 -130 3 -22 9
-62 14 -90 5 -27 12 -68 15 -90 6 -40 15 -91 19 -110 2 -5 6 -32 11 -60 4 -27
21 -108 37 -180 16 -71 31 -137 33 -145 137 -612 428 -1356 762 -1943 195
-344 460 -733 670 -987 30 -36 62 -74 70 -85 18 -22 117 -136 173 -199 184
-206 525 -539 735 -718 33 -28 119 -101 150 -127 53 -44 353 -273 391 -298 11
-7 54 -38 97 -68 42 -30 81 -55 86 -55 5 0 11 -4 13 -8 5 -14 331 -216 498
-310 298 -167 596 -311 875 -422 314 -126 775 -272 1025 -324 14 -3 43 -10 65
-15 165 -37 520 -101 644 -116 30 -4 61 -8 70 -10 9 -1 52 -6 96 -11 44 -4 82
-8 85 -9 3 -1 53 -5 111 -9 58 -5 121 -10 140 -11 175 -17 681 -23 904 -11
188 10 344 22 415 31 19 2 58 7 85 10 47 5 164 20 245 31 19 3 46 7 60 9 14 3
43 7 65 11 311 44 793 165 1180 295 424 144 884 346 1218 536 45 26 91 52 102
58 11 6 46 26 78 45 32 19 73 44 92 55 238 138 708 481 940 686 223 196 507
474 670 654 44 48 87 96 95 104 94 102 324 388 446 556 119 162 312 455 384
579 10 17 40 69 67 116 133 229 264 488 391 770 83 185 285 759 308 875 2 11
13 52 24 90 20 68 87 344 96 395 3 14 11 57 19 95 8 39 17 86 20 105 3 19 8
42 10 50 10 36 58 366 70 490 3 30 7 71 10 90 2 19 7 76 10 126 l7 91 -523 -1
c-456 -1 -522 -3 -524 -16 -1 -8 -5 -49 -9 -90 -3 -41 -8 -91 -11 -110 -20
-156 -28 -217 -30 -230 -1 -8 -6 -35 -10 -60 -5 -37 -25 -142 -51 -280 -53
-274 -198 -769 -294 -1005 -143 -351 -257 -589 -425 -890 -198 -356 -488 -753
-840 -1150 -77 -87 -341 -348 -466 -460 -316 -285 -751 -598 -1099 -792 -19
-11 -76 -43 -126 -71 -80 -46 -331 -169 -469 -232 -364 -164 -963 -355 -1320
-419 -33 -6 -69 -13 -80 -15 -78 -15 -198 -36 -237 -41 -26 -3 -53 -7 -60 -10
-7 -2 -40 -6 -73 -10 -33 -3 -73 -7 -90 -9 -16 -2 -64 -7 -105 -11 -41 -4 -88
-9 -105 -10 -242 -24 -850 -24 -1060 0 -16 1 -59 6 -95 10 -36 3 -85 8 -110
11 -53 6 -184 23 -220 29 -224 37 -296 51 -415 76 -77 17 -183 42 -235 56 -52
14 -104 28 -115 30 -11 3 -78 23 -150 45 -386 116 -795 286 -1160 481 -203
108 -549 322 -690 426 -27 21 -95 71 -150 111 -55 41 -102 77 -105 80 -3 3
-25 21 -50 40 -25 19 -47 37 -50 40 -3 3 -32 28 -65 55 -33 28 -62 52 -65 55
-3 3 -43 39 -90 79 -109 96 -391 377 -506 506 -635 707 -1121 1577 -1383 2475
-17 58 -35 119 -40 135 -28 89 -116 489 -136 615 -3 19 -7 46 -10 60 -3 14 -7
43 -10 65 -2 22 -7 56 -9 75 -11 71 -25 197 -32 270 -3 41 -8 78 -10 82 -5 8
-1034 7 -1039 -1z"/>
<path d="M6771 7290 c-10 -5 -9 -9 2 -13 12 -4 14 -23 13 -87 -2 -74 -1 -81
16 -77 10 3 21 1 24 -4 9 -15 33 -10 55 12 16 16 19 28 14 56 -8 50 -23 66
-57 59 -25 -5 -28 -3 -28 23 0 30 -18 45 -39 31z m99 -100 c12 -49 -16 -84
-46 -59 -17 14 -18 76 -1 82 24 10 41 2 47 -23z"/>
<path d="M7408 7289 c-10 -5 -18 -18 -18 -29 0 -10 -6 -21 -12 -24 -10 -5 -10
-7 0 -12 14 -7 17 -104 2 -104 -5 0 -10 -4 -10 -8 0 -5 15 -7 33 -6 44 3 44 3
27 14 -19 12 -22 100 -3 100 7 0 13 5 13 11 0 5 -4 8 -9 5 -19 -12 -19 24 -1
37 31 21 10 35 -22 16z"/>
<path d="M8100 7288 c0 -4 4 -10 10 -13 12 -8 11 -143 -1 -151 -23 -14 9 -24
50 -15 2 1 -1 7 -7 14 -5 6 -10 44 -10 82 0 39 -1 75 -1 80 -1 12 -41 15 -41
3z"/>
<path d="M9033 7293 c-18 -7 -16 -23 2 -23 8 0 15 7 15 15 0 8 -1 15 -2 14 -2
0 -9 -3 -15 -6z"/>
<path d="M9565 7291 c-3 -5 -1 -12 5 -16 14 -9 13 -138 -2 -153 -13 -13 -14
-13 25 -16 15 -2 27 1 27 6 0 4 -3 8 -7 8 -5 0 -9 20 -10 45 -1 36 2 45 19 51
11 3 25 1 31 -5 13 -13 11 -85 -3 -89 -21 -7 -9 -18 18 -16 44 2 48 4 33 13
-9 6 -15 28 -16 56 -2 52 -16 68 -57 61 -23 -5 -26 -2 -23 20 2 26 -28 53 -40
35z"/>
<path d="M10280 7285 c0 -16 16 -20 24 -6 3 5 -1 11 -9 15 -9 3 -15 0 -15 -9z"/>
<path d="M11053 7293 c-18 -7 -16 -23 2 -23 8 0 15 7 15 15 0 8 -1 15 -2 14
-2 0 -9 -3 -15 -6z"/>
<path d="M5980 7256 c0 -8 -6 -17 -12 -20 -10 -5 -10 -7 0 -12 7 -3 12 -26 12
-59 0 -46 3 -53 22 -58 28 -8 48 4 22 13 -15 6 -19 17 -20 54 0 32 4 46 13 46
18 0 16 7 -7 30 -24 24 -30 25 -30 6z"/>
<path d="M8700 7257 c0 -9 -6 -18 -12 -21 -10 -5 -10 -7 0 -12 7 -3 12 -25 12
-52 0 -26 4 -51 8 -57 10 -14 39 -17 47 -5 3 5 -1 10 -9 10 -18 0 -18 -1 -21
58 -2 30 1 42 11 42 8 0 14 5 14 10 0 6 -7 10 -15 10 -8 0 -14 5 -12 11 1 6
-4 14 -10 16 -7 3 -13 -2 -13 -10z"/>
<path d="M9490 7256 c0 -8 -6 -17 -12 -20 -10 -5 -10 -7 0 -12 7 -3 12 -26 12
-59 0 -55 13 -71 47 -58 14 6 14 7 -3 14 -26 9 -33 86 -9 95 19 8 20 24 0 24
-8 0 -15 7 -15 15 0 8 -4 15 -10 15 -5 0 -10 -6 -10 -14z"/>
<path d="M9950 7257 c0 -9 -6 -18 -12 -21 -10 -5 -10 -7 0 -12 7 -3 12 -25 12
-54 0 -39 4 -52 20 -60 11 -6 26 -8 32 -4 7 5 4 10 -9 15 -16 6 -20 16 -19 49
1 22 8 45 15 49 11 7 11 10 -2 17 -9 5 -16 13 -16 19 0 5 -4 11 -10 13 -6 2
-11 -3 -11 -11z"/>
<path d="M10730 7256 c0 -8 -6 -16 -12 -19 -10 -3 -10 -7 0 -20 7 -8 12 -21
11 -29 -5 -39 3 -76 17 -82 22 -8 41 4 22 15 -9 5 -15 26 -16 54 -2 37 1 45
15 45 17 1 17 1 1 14 -10 7 -18 18 -18 25 0 6 -4 11 -10 11 -5 0 -10 -6 -10
-14z"/>
<path d="M10946 7245 c-12 -19 -13 -25 -3 -25 9 0 12 -14 11 -45 -1 -29 4 -51
13 -60 17 -17 43 -20 43 -5 0 6 -7 10 -15 10 -25 0 -22 87 3 107 10 7 13 13 7
12 -24 -3 -34 2 -29 16 10 24 -12 17 -30 -10z"/>
<path d="M5408 7223 c-35 -42 -28 -94 16 -114 27 -13 66 2 66 26 0 20 -10 19
-26 -2 -20 -27 -49 -5 -49 37 0 42 29 64 49 38 17 -23 26 -23 26 1 0 11 -9 21
-22 25 -35 9 -44 7 -60 -11z"/>
<path d="M5536 7224 c-9 -8 -16 -18 -17 -22 0 -4 -2 -17 -5 -28 -2 -12 6 -34
18 -49 16 -21 26 -25 47 -20 14 3 32 13 39 22 44 58 -32 148 -82 97z m66 -29
c8 -19 8 -31 0 -50 -21 -45 -66 -21 -60 32 5 48 41 59 60 18z"/>
<path d="M5655 7222 c4 -9 8 -34 7 -55 0 -47 33 -76 67 -58 14 8 20 8 23 -1 3
-8 9 -8 24 0 10 6 13 12 7 12 -9 0 -13 18 -13 58 0 51 -2 58 -20 59 -20 2 -27
-11 -11 -21 14 -9 6 -77 -10 -87 -31 -19 -41 -3 -43 65 0 33 -4 42 -19 43 -14
2 -17 -2 -12 -15z"/>
<path d="M5805 7230 c-3 -5 -1 -10 4 -10 6 0 11 -21 11 -50 0 -27 -4 -50 -10
-50 -5 0 -10 -4 -10 -8 0 -5 12 -8 28 -6 36 3 36 2 25 17 -16 21 -10 79 10 91
36 22 58 -52 27 -89 -7 -8 -11 -15 -9 -16 23 -5 61 -3 65 3 3 4 0 8 -5 8 -6 0
-11 20 -11 44 0 27 -6 51 -16 60 -18 19 -28 20 -55 6 -13 -7 -19 -7 -19 0 0
13 -27 13 -35 0z"/>
<path d="M6225 7231 c-2 -2 2 -9 9 -16 15 -15 12 -85 -5 -95 -6 -4 3 -9 20
-12 37 -5 45 0 27 17 -16 16 -8 85 10 92 8 3 20 0 28 -6 17 -14 14 -80 -5 -92
-12 -7 -12 -9 1 -10 8 0 25 -2 38 -3 12 -2 22 1 22 6 0 4 -4 8 -10 8 -5 0 -10
19 -10 43 0 61 -11 72 -70 72 -28 0 -53 -1 -55 -4z"/>
<path d="M6385 7230 c-3 -5 -2 -10 3 -10 6 0 10 -15 10 -34 0 -70 21 -94 67
-76 14 5 25 6 25 1 0 -4 7 -8 15 -8 11 0 13 6 8 21 -4 12 -7 41 -7 65 -1 34
-5 45 -18 47 -10 1 -20 -2 -24 -7 -3 -5 -1 -9 4 -9 13 0 20 -39 12 -70 -4 -17
-13 -25 -28 -26 -12 -1 -23 1 -23 5 -2 6 -6 62 -8 94 -1 18 -26 23 -36 7z"/>
<path d="M6540 7230 c0 -4 3 -10 8 -14 10 -11 11 -96 0 -96 -4 0 -8 -4 -8 -8
0 -6 36 -8 59 -3 2 1 -1 7 -7 14 -5 6 -10 29 -10 50 0 66 49 61 55 -5 1 -21
-4 -37 -14 -45 -9 -7 -13 -13 -7 -14 50 -5 64 -5 64 3 0 4 -4 8 -10 8 -5 0
-10 20 -10 44 0 36 4 46 21 51 11 4 23 4 26 1 9 -9 8 -78 -1 -97 -5 -12 -1
-16 18 -15 25 2 50 16 28 16 -7 0 -12 17 -12 44 0 61 -31 91 -70 67 -8 -6 -19
-7 -25 -3 -14 9 -105 11 -105 2z"/>
<path d="M6940 7222 c-26 -21 -30 -76 -7 -99 19 -19 87 -22 87 -3 0 5 -14 7
-30 5 -22 -3 -33 2 -40 16 -12 21 -12 20 30 24 17 1 34 3 39 4 15 2 3 45 -16
59 -23 17 -37 15 -63 -6z m58 -23 c2 -12 -4 -15 -25 -13 -15 1 -30 2 -32 3 -2
1 2 8 9 16 16 19 44 16 48 -6z"/>
<path d="M7044 7228 c-2 -3 1 -8 8 -10 19 -7 18 -98 -1 -98 -8 0 -11 -3 -7 -7
10 -10 56 -11 62 -1 3 4 0 8 -5 8 -6 0 -11 20 -11 45 0 42 6 50 33 46 4 0 7 5
7 12 0 14 -78 18 -86 5z"/>
<path d="M7256 7224 c-9 -8 -16 -21 -17 -27 0 -7 -2 -20 -4 -29 -4 -22 23 -54
52 -63 54 -15 88 86 41 119 -29 20 -52 20 -72 0z m67 -25 c13 -21 1 -65 -20
-73 -33 -13 -58 55 -31 82 16 16 38 12 51 -9z"/>
<path d="M7540 7229 c0 -5 4 -9 9 -9 5 0 9 -34 10 -75 0 -43 -4 -75 -9 -75
-22 0 -8 -16 15 -18 26 -2 42 12 25 23 -5 3 -10 13 -10 22 0 11 6 14 26 9 35
-9 64 17 64 59 0 50 -20 68 -79 71 -28 1 -51 -2 -51 -7z m95 -19 c15 -24 14
-59 -1 -74 -16 -17 -43 -22 -45 -8 -7 42 -4 78 5 84 16 11 34 10 41 -2z"/>
<path d="M7718 7229 c-22 -12 -33 -71 -19 -97 13 -24 43 -36 71 -27 28 9 25
27 -4 19 -15 -3 -29 1 -40 12 -22 21 -7 33 36 30 37 -3 46 16 24 49 -17 26
-40 31 -68 14z m50 -30 c2 -12 -4 -16 -23 -16 -24 0 -33 15 -18 31 12 11 38 2
41 -15z"/>
<path d="M7840 7220 c-55 -55 9 -151 69 -103 29 24 33 72 8 101 -25 27 -51 28
-77 2z m58 -12 c16 -16 15 -63 -2 -77 -26 -22 -59 9 -53 49 6 38 32 51 55 28z"/>
<path d="M7950 7230 c0 -5 5 -10 10 -10 6 0 10 -32 10 -75 0 -46 -4 -75 -11
-75 -5 0 -7 -4 -4 -10 3 -5 17 -9 30 -8 25 2 31 9 18 22 -20 19 -9 34 24 33
20 -1 38 5 44 13 14 24 10 87 -7 104 -17 18 -50 21 -59 6 -3 -5 3 -10 14 -10
20 0 41 -27 41 -52 0 -28 -26 -51 -48 -44 -18 6 -20 14 -18 49 2 23 1 47 -1
54 -6 15 -43 18 -43 3z"/>
<path d="M8200 7220 c-41 -41 -8 -130 43 -116 12 3 25 6 30 6 4 0 7 5 7 11 0
7 -11 8 -29 4 -23 -5 -32 -2 -40 14 -13 24 -6 30 37 26 41 -3 51 15 28 50 -20
30 -49 32 -76 5z m59 -18 c8 -16 6 -18 -20 -18 -16 0 -29 5 -29 11 0 29 35 34
49 7z"/>
<path d="M8415 7220 c-29 -32 -29 -76 2 -99 31 -25 43 -26 69 -6 18 15 17 16
-12 10 -21 -4 -35 -1 -43 9 -19 22 -6 33 34 31 30 -1 35 2 35 21 0 49 -52 70
-85 34z m55 -4 c0 -2 2 -11 5 -19 4 -10 -1 -14 -20 -13 -14 1 -25 5 -25 9 0 4
0 12 0 17 0 6 9 10 20 10 11 0 20 -2 20 -4z"/>
<path d="M8524 7228 c-3 -4 0 -8 5 -8 6 0 11 -21 11 -50 0 -31 -4 -50 -12 -50
-6 0 -8 -3 -4 -7 10 -10 56 -11 62 -1 3 4 -1 8 -8 8 -21 0 -17 80 5 94 35 21
53 -29 33 -91 -6 -18 -3 -21 19 -19 26 3 48 16 27 16 -7 0 -12 17 -12 43 0 23
-4 48 -9 56 -10 16 -108 23 -117 9z"/>
<path d="M8798 7226 c-36 -27 -29 -94 12 -116 22 -12 73 -3 64 11 -3 6 -15 7
-25 4 -21 -7 -49 10 -49 29 0 8 14 12 38 11 43 -1 55 10 40 39 -20 38 -49 46
-80 22z m52 -16 c0 -5 0 -13 0 -17 0 -5 -11 -9 -25 -10 -27 -2 -32 6 -13 25
15 15 38 16 38 2z"/>
<path d="M8900 7228 c0 -4 5 -8 10 -8 6 0 10 -22 10 -50 0 -29 -5 -50 -11 -50
-5 0 -8 -4 -5 -8 3 -5 15 -8 28 -6 13 1 28 3 33 3 6 1 5 5 -2 9 -28 18 -21
106 9 99 6 -1 13 4 15 11 6 15 -19 16 -35 0 -9 -9 -12 -9 -12 -1 0 7 -9 11
-20 10 -11 -1 -20 -5 -20 -9z"/>
<path d="M9004 7229 c-2 -4 3 -9 10 -12 18 -7 13 -86 -6 -98 -7 -5 -8 -9 -3
-10 48 -5 65 -5 65 3 0 4 -4 8 -10 8 -6 0 -10 26 -10 59 0 54 -2 60 -21 58
-11 -1 -22 -4 -25 -8z"/>
<path d="M9084 7229 c-2 -4 2 -9 9 -12 19 -7 16 -85 -3 -97 -8 -5 -10 -10 -5
-11 6 0 20 -2 33 -3 13 -2 25 1 28 6 3 4 0 8 -5 8 -6 0 -11 20 -11 44 0 36 4
46 21 51 11 4 23 4 27 0 11 -11 10 -95 -1 -95 -6 0 -7 -3 -4 -6 10 -11 57 -13
57 -3 0 5 -4 9 -10 9 -5 0 -10 22 -10 49 0 29 -5 53 -12 58 -16 9 -108 11
-114 2z"/>
<path d="M9265 7217 c-37 -52 -3 -124 52 -111 26 7 31 -7 8 -26 -8 -6 -23 -9
-36 -5 -16 5 -20 3 -17 -6 6 -17 54 -15 74 2 10 8 14 33 14 80 0 46 4 69 12
69 6 0 8 3 5 7 -4 3 -27 7 -52 9 -36 1 -48 -2 -60 -19z m66 -4 c10 -68 -2
-100 -34 -87 -37 14 -26 94 13 94 11 0 21 -3 21 -7z"/>
<path d="M9754 7230 c-24 -10 -37 -48 -28 -84 7 -30 57 -51 85 -35 27 14 24
22 -5 15 -33 -8 -56 2 -56 24 0 15 7 18 40 16 36 -3 40 0 40 20 0 24 -24 54
-43 53 -7 0 -22 -4 -33 -9z m44 -22 c19 -19 14 -26 -18 -24 -16 0 -30 6 -30
12 0 25 28 32 48 12z"/>
<path d="M10024 7229 c-2 -4 2 -9 9 -12 17 -6 15 -71 -3 -92 -10 -12 -10 -15
1 -16 8 0 22 -2 31 -4 21 -4 33 11 15 18 -16 6 -13 77 4 88 7 4 17 5 21 3 4
-3 8 1 8 8 0 14 -78 20 -86 7z"/>
<path d="M10148 7233 c-10 -2 -18 -10 -18 -17 0 -22 12 -26 25 -10 8 11 19 14
33 10 33 -11 27 -24 -17 -36 -41 -11 -51 -23 -43 -52 5 -22 27 -29 56 -18 15
5 27 5 35 -3 13 -13 13 -10 11 58 -2 66 -23 84 -82 68z m57 -72 c8 -14 -23
-41 -40 -35 -21 8 -19 32 3 37 28 8 31 7 37 -2z"/>
<path d="M10265 7230 c-3 -5 -1 -10 4 -10 6 0 11 -21 11 -50 0 -27 -4 -50 -10
-50 -5 0 -10 -4 -10 -8 0 -4 15 -7 33 -6 43 3 44 3 27 14 -10 6 -15 27 -16 57
-1 26 -2 51 -3 56 -2 11 -29 9 -36 -3z"/>
<path d="M10340 7228 c0 -4 5 -8 10 -8 6 0 10 -22 10 -50 0 -27 -4 -50 -10
-50 -5 0 -10 -4 -10 -8 0 -5 11 -8 25 -8 21 2 29 7 24 19 -1 1 -2 21 -4 44 -2
35 1 44 17 49 11 3 25 1 31 -5 13 -13 11 -85 -3 -89 -22 -8 -8 -18 23 -16 43
3 44 3 27 13 -9 6 -14 27 -15 56 0 46 -13 65 -45 65 -9 0 -21 -5 -28 -12 -9
-9 -12 -9 -12 -1 0 7 -9 11 -20 10 -11 -1 -20 -5 -20 -9z"/>
<path d="M10618 7233 c-40 -10 -31 -56 14 -69 17 -5 33 -15 36 -22 6 -18 -28
-27 -49 -14 -24 16 -29 15 -29 -3 0 -8 6 -15 13 -15 6 0 22 -3 34 -6 14 -4 28
1 43 16 20 20 21 23 5 40 -9 10 -27 21 -41 24 -13 4 -24 13 -24 21 0 20 37 19
48 -1 8 -15 10 -14 16 2 11 27 -19 40 -66 27z"/>
<path d="M10823 7234 c-7 -3 -13 -15 -13 -26 0 -20 1 -20 19 -4 20 18 51 12
51 -10 0 -9 -11 -14 -29 -14 -16 0 -33 -6 -39 -13 -11 -13 -11 -41 0 -52 11
-12 43 -12 56 -2 8 7 16 7 20 1 10 -13 32 -16 32 -5 0 6 -4 12 -9 15 -5 3 -7
23 -4 43 2 21 0 44 -5 50 -9 14 -61 25 -79 17z m60 -84 c-6 -23 -39 -32 -53
-15 -12 15 5 30 39 32 14 1 17 -3 14 -17z"/>
<path d="M11025 7229 c-4 -5 0 -9 8 -9 10 0 14 -13 13 -44 -1 -24 -4 -48 -8
-52 -14 -14 -8 -21 17 -20 24 2 49 16 27 16 -8 0 -12 20 -12 58 0 50 -3 58
-20 59 -11 1 -22 -2 -25 -8z"/>
<path d="M11127 7222 c-25 -28 -22 -87 5 -106 29 -21 41 -20 68 2 30 25 30 80
-1 104 -27 23 -52 23 -72 0z m62 -16 c17 -20 10 -67 -12 -80 -15 -9 -21 -7
-33 8 -35 48 8 117 45 72z"/>
<path d="M11240 7229 c0 -4 5 -9 12 -11 15 -5 12 -89 -5 -100 -13 -8 -7 -10
33 -10 31 0 32 1 17 16 -17 17 -13 76 6 88 18 12 37 10 38 -4 6 -58 4 -80 -10
-88 -9 -5 -11 -10 -6 -11 6 0 20 -2 33 -3 13 -2 25 1 28 6 3 4 0 8 -5 8 -6 0
-11 19 -11 43 0 62 -10 71 -74 72 -31 1 -56 -2 -56 -6z"/>
</g>
</svg>
